<svg width="28.998535" height="24.000000" viewBox="0 0 28.9985 24" fill="none" xmlns="http://www.w3.org/2000/svg" xmlns:xlink="http://www.w3.org/1999/xlink">
	<desc>
			Created with Pixso.
	</desc>
	<defs/>
	<path id="01" d="M3.97 22.96Q5.84 23.99 8.28 23.99Q10.73 23.99 12.59 22.95Q13.52 22.43 14.26 21.69Q14.99 20.96 15.52 20.03Q15.54 19.98 15.57 19.93Q16.57 18.09 16.57 15.71L16.57 8.28Q16.57 5.9 15.57 4.06Q15.54 4.01 15.52 3.96Q14.97 3 14.22 2.26Q13.5 1.56 12.59 1.05Q12.57 1.04 12.55 1.03Q10.7 -8.4e-5 8.28 -8.4e-5Q5.9 -8.49e-5 4.06 1Q4.01 1.02 3.96 1.05Q3.05 1.56 2.33 2.26Q1.58 3 1.04 3.96Q1.03 3.97 1.03 3.97Q9.77e-6 5.84 9.77e-6 8.28L9.77e-6 15.71Q9.53e-6 18.15 1.03 20.02Q1.03 20.02 1.04 20.03Q1.56 20.96 2.3 21.69Q3.03 22.43 3.96 22.95L3.97 22.96ZM25.06 4.68L25.06 23.51L28.99 23.51L28.99 0.47L25.06 0.47L20.74 3.07L20.74 7.32L25.06 4.68ZM10.49 19.75C9.83 20.14 9.09 20.33 8.28 20.33Q7.42 20.33 6.66 20.04Q6.36 19.92 6.08 19.75C5.41 19.36 4.89 18.84 4.51 18.19Q4.34 17.9 4.22 17.6Q3.93 16.85 3.93 15.98L3.93 7.99Q3.93 7.02 4.29 6.2Q4.39 5.99 4.51 5.79Q4.8 5.29 5.19 4.9Q5.58 4.51 6.08 4.22C6.74 3.82 7.47 3.63 8.28 3.63Q9.11 3.63 9.83 3.9Q10.17 4.03 10.49 4.22Q10.99 4.51 11.38 4.9Q11.77 5.29 12.06 5.79Q12.18 5.99 12.27 6.2Q12.64 7.02 12.64 7.99L12.64 15.98Q12.64 16.85 12.34 17.6Q12.22 17.9 12.06 18.19C11.68 18.84 11.15 19.36 10.49 19.75Z" fill="#FFFFFF" fill-opacity="1.000000" fill-rule="evenodd"/>
</svg>
