<svg width="36.278564" height="24.000000" viewBox="0 0 36.2786 24" fill="none" xmlns="http://www.w3.org/2000/svg" xmlns:xlink="http://www.w3.org/1999/xlink">
	<desc>
			Created with Pixso.
	</desc>
	<defs/>
	<path id="02" d="M3.97 22.96Q5.84 23.99 8.28 23.99Q10.73 23.99 12.59 22.95Q13.52 22.43 14.26 21.69Q14.99 20.96 15.52 20.03Q15.54 19.98 15.57 19.93Q16.57 18.09 16.57 15.71L16.57 8.28Q16.57 5.9 15.57 4.06Q15.54 4.01 15.52 3.96Q14.97 3 14.22 2.26Q13.5 1.56 12.59 1.05Q12.57 1.04 12.55 1.03Q10.7 -8.4e-5 8.28 -8.4e-5Q5.9 -8.49e-5 4.06 1Q4.01 1.02 3.96 1.05Q3.05 1.56 2.33 2.26Q1.58 3 1.04 3.96Q1.03 3.97 1.03 3.97Q9.77e-6 5.84 9.77e-6 8.28L9.77e-6 15.71Q9.53e-6 18.15 1.03 20.02Q1.03 20.02 1.04 20.03Q1.56 20.96 2.3 21.69Q3.03 22.43 3.96 22.95L3.97 22.96ZM20.42 20.12L20.42 23.48L36.27 23.48L36.27 19.85L26.38 19.85L32.29 14.62C33.16 13.85 33.89 13.15 34.48 12.52C35.08 11.89 35.53 11.21 35.83 10.46C36.12 9.71 36.27 8.79 36.27 7.69C36.27 6.19 35.94 4.86 35.27 3.71C34.59 2.54 33.67 1.64 32.5 0.99C31.32 0.33 30 -8.4e-5 28.53 -8.4e-5Q26.15 -8.4e-5 24.32 0.94C23.12 1.57 22.17 2.45 21.47 3.59Q21.45 3.64 21.42 3.68Q20.45 5.36 20.45 7.61L24.42 7.61Q24.4 7.05 24.54 6.52Q24.66 6.07 24.9 5.64C25.24 5.03 25.71 4.55 26.32 4.19Q26.47 4.1 26.62 4.02Q27.44 3.63 28.45 3.63Q29.44 3.63 30.23 4.03Q30.34 4.09 30.45 4.15C31.04 4.51 31.49 4.99 31.83 5.59C32.16 6.19 32.32 6.87 32.32 7.64C32.32 8.21 32.17 8.79 31.87 9.4Q31.43 10.31 30.27 11.34L20.42 20.12ZM10.49 19.75C9.83 20.14 9.09 20.33 8.28 20.33Q7.42 20.33 6.66 20.04Q6.36 19.92 6.08 19.75C5.41 19.36 4.89 18.84 4.51 18.19Q4.34 17.9 4.22 17.6Q3.93 16.85 3.93 15.98L3.93 7.99Q3.93 7.02 4.29 6.2Q4.39 5.99 4.51 5.79Q4.8 5.29 5.19 4.9Q5.58 4.51 6.08 4.22C6.74 3.82 7.47 3.63 8.28 3.63Q9.11 3.63 9.83 3.9Q10.17 4.03 10.49 4.22Q10.99 4.51 11.38 4.9Q11.77 5.29 12.06 5.79Q12.18 5.99 12.27 6.2Q12.64 7.02 12.64 7.99L12.64 15.98Q12.64 16.85 12.34 17.6Q12.22 17.9 12.06 18.19C11.68 18.84 11.15 19.36 10.49 19.75Z" fill="#FFFFFF" fill-opacity="1.000000" fill-rule="evenodd"/>
</svg>
